<svg xmlns="http://www.w3.org/2000/svg" viewBox="0 0 800 520" role="img" aria-label="Platzhalter: Bilderbuchecke">
  <rect width="800" height="520" fill="#F3EEDD"/>
  <rect y="410" width="800" height="110" fill="#BFD3C1"/>
  <g>
    <rect x="110" y="300" width="170" height="120" rx="10" fill="#3E6B48"/>
    <rect x="315" y="300" width="170" height="120" rx="10" fill="#B5643C"/>
    <rect x="520" y="300" width="170" height="120" rx="10" fill="#3E5E8C"/>
  </g>
  <g fill="#F7F3E8" stroke="#5B5B5B" stroke-width="2">
    <rect x="128" y="250" width="40" height="64" rx="3" transform="rotate(-6 148 282)"/>
    <rect x="176" y="246" width="40" height="68" rx="3" fill="#F4D58D"/>
    <rect x="224" y="252" width="40" height="62" rx="3" fill="#E7A65A" transform="rotate(5 244 283)"/>
    <rect x="335" y="248" width="40" height="66" rx="3" fill="#8CB89A"/>
    <rect x="383" y="252" width="40" height="62" rx="3" transform="rotate(-4 403 283)"/>
    <rect x="431" y="246" width="40" height="68" rx="3" fill="#F4D58D"/>
    <rect x="540" y="250" width="40" height="64" rx="3" fill="#E7A65A"/>
    <rect x="588" y="246" width="40" height="68" rx="3" transform="rotate(6 608 280)"/>
    <rect x="636" y="252" width="40" height="62" rx="3" fill="#8CB89A"/>
  </g>
  <ellipse cx="400" cy="470" rx="90" ry="22" fill="#E7A65A"/>
  <rect x="190" y="30" width="420" height="40" rx="20" fill="#FFFFFF" opacity=".9"/>
  <text x="400" y="57" text-anchor="middle" font-family="sans-serif" font-size="20" fill="#3E4A3F">Platzhalter für ein Foto: Bilderbuchecke</text>
</svg>
